<svg width="208" height="208" viewBox="0 0 208 208" fill="none" xmlns="http://www.w3.org/2000/svg">
<path d="M14 12C14 13.1046 13.1046 14 12 14C10.8954 14 10 13.1046 10 12C10 10.8954 10.8954 10 12 10C13.1046 10 14 10.8954 14 12Z" fill="#FFC800" fill-opacity="0.05"/>
<path d="M14 35C14 36.1046 13.1046 37 12 37C10.8954 37 10 36.1046 10 35C10 33.8954 10.8954 33 12 33C13.1046 33 14 33.8954 14 35Z" fill="#FFC800" fill-opacity="0.05"/>
<path d="M14 58C14 59.1046 13.1046 60 12 60C10.8954 60 10 59.1046 10 58C10 56.8954 10.8954 56 12 56C13.1046 56 14 56.8954 14 58Z" fill="#FFC800" fill-opacity="0.05"/>
<path d="M14 81C14 82.1046 13.1046 83 12 83C10.8954 83 10 82.1046 10 81C10 79.8954 10.8954 79 12 79C13.1046 79 14 79.8954 14 81Z" fill="#FFC800" fill-opacity="0.05"/>
<path d="M14 104C14 105.105 13.1046 106 12 106C10.8954 106 10 105.105 10 104C10 102.895 10.8954 102 12 102C13.1046 102 14 102.895 14 104Z" fill="#FFC800" fill-opacity="0.05"/>
<path d="M14 127C14 128.105 13.1046 129 12 129C10.8954 129 10 128.105 10 127C10 125.895 10.8954 125 12 125C13.1046 125 14 125.895 14 127Z" fill="#FFC800" fill-opacity="0.05"/>
<path d="M14 150C14 151.105 13.1046 152 12 152C10.8954 152 10 151.105 10 150C10 148.895 10.8954 148 12 148C13.1046 148 14 148.895 14 150Z" fill="#FFC800" fill-opacity="0.05"/>
<path d="M14 173C14 174.105 13.1046 175 12 175C10.8954 175 10 174.105 10 173C10 171.895 10.8954 171 12 171C13.1046 171 14 171.895 14 173Z" fill="#FFC800" fill-opacity="0.05"/>
<path d="M14 196C14 197.105 13.1046 198 12 198C10.8954 198 10 197.105 10 196C10 194.895 10.8954 194 12 194C13.1046 194 14 194.895 14 196Z" fill="#FFC800" fill-opacity="0.05"/>
<path d="M37 12C37 13.1046 36.1046 14 35 14C33.8954 14 33 13.1046 33 12C33 10.8954 33.8954 10 35 10C36.1046 10 37 10.8954 37 12Z" fill="#FFC800" fill-opacity="0.05"/>
<path d="M37 35C37 36.1046 36.1046 37 35 37C33.8954 37 33 36.1046 33 35C33 33.8954 33.8954 33 35 33C36.1046 33 37 33.8954 37 35Z" fill="#FFC800" fill-opacity="0.05"/>
<path d="M37 58C37 59.1046 36.1046 60 35 60C33.8954 60 33 59.1046 33 58C33 56.8954 33.8954 56 35 56C36.1046 56 37 56.8954 37 58Z" fill="#FFC800" fill-opacity="0.05"/>
<path d="M37 81C37 82.1046 36.1046 83 35 83C33.8954 83 33 82.1046 33 81C33 79.8954 33.8954 79 35 79C36.1046 79 37 79.8954 37 81Z" fill="#FFC800" fill-opacity="0.05"/>
<path d="M37 104C37 105.105 36.1046 106 35 106C33.8954 106 33 105.105 33 104C33 102.895 33.8954 102 35 102C36.1046 102 37 102.895 37 104Z" fill="#FFC800" fill-opacity="0.05"/>
<path d="M37 127C37 128.105 36.1046 129 35 129C33.8954 129 33 128.105 33 127C33 125.895 33.8954 125 35 125C36.1046 125 37 125.895 37 127Z" fill="#FFC800" fill-opacity="0.05"/>
<path d="M37 150C37 151.105 36.1046 152 35 152C33.8954 152 33 151.105 33 150C33 148.895 33.8954 148 35 148C36.1046 148 37 148.895 37 150Z" fill="#FFC800" fill-opacity="0.05"/>
<path d="M37 173C37 174.105 36.1046 175 35 175C33.8954 175 33 174.105 33 173C33 171.895 33.8954 171 35 171C36.1046 171 37 171.895 37 173Z" fill="#FFC800" fill-opacity="0.05"/>
<path d="M37 196C37 197.105 36.1046 198 35 198C33.8954 198 33 197.105 33 196C33 194.895 33.8954 194 35 194C36.1046 194 37 194.895 37 196Z" fill="#FFC800" fill-opacity="0.05"/>
<path d="M60 12C60 13.1046 59.1046 14 58 14C56.8954 14 56 13.1046 56 12C56 10.8954 56.8954 10 58 10C59.1046 10 60 10.8954 60 12Z" fill="#FFC800" fill-opacity="0.05"/>
<path d="M60 35C60 36.1046 59.1046 37 58 37C56.8954 37 56 36.1046 56 35C56 33.8954 56.8954 33 58 33C59.1046 33 60 33.8954 60 35Z" fill="#FFC800" fill-opacity="0.05"/>
<path d="M60 58C60 59.1046 59.1046 60 58 60C56.8954 60 56 59.1046 56 58C56 56.8954 56.8954 56 58 56C59.1046 56 60 56.8954 60 58Z" fill="#FFC800" fill-opacity="0.05"/>
<path d="M60 81C60 82.1046 59.1046 83 58 83C56.8954 83 56 82.1046 56 81C56 79.8954 56.8954 79 58 79C59.1046 79 60 79.8954 60 81Z" fill="#FFC800" fill-opacity="0.05"/>
<path d="M60 104C60 105.105 59.1046 106 58 106C56.8954 106 56 105.105 56 104C56 102.895 56.8954 102 58 102C59.1046 102 60 102.895 60 104Z" fill="#FFC800" fill-opacity="0.05"/>
<path d="M60 127C60 128.105 59.1046 129 58 129C56.8954 129 56 128.105 56 127C56 125.895 56.8954 125 58 125C59.1046 125 60 125.895 60 127Z" fill="#FFC800" fill-opacity="0.05"/>
<path d="M60 150C60 151.105 59.1046 152 58 152C56.8954 152 56 151.105 56 150C56 148.895 56.8954 148 58 148C59.1046 148 60 148.895 60 150Z" fill="#FFC800" fill-opacity="0.05"/>
<path d="M60 173C60 174.105 59.1046 175 58 175C56.8954 175 56 174.105 56 173C56 171.895 56.8954 171 58 171C59.1046 171 60 171.895 60 173Z" fill="#FFC800" fill-opacity="0.05"/>
<path d="M60 196C60 197.105 59.1046 198 58 198C56.8954 198 56 197.105 56 196C56 194.895 56.8954 194 58 194C59.1046 194 60 194.895 60 196Z" fill="#FFC800" fill-opacity="0.05"/>
<path d="M83 12C83 13.1046 82.1046 14 81 14C79.8954 14 79 13.1046 79 12C79 10.8954 79.8954 10 81 10C82.1046 10 83 10.8954 83 12Z" fill="#FFC800" fill-opacity="0.05"/>
<path d="M83 35C83 36.1046 82.1046 37 81 37C79.8954 37 79 36.1046 79 35C79 33.8954 79.8954 33 81 33C82.1046 33 83 33.8954 83 35Z" fill="#FFC800" fill-opacity="0.05"/>
<path d="M83 58C83 59.1046 82.1046 60 81 60C79.8954 60 79 59.1046 79 58C79 56.8954 79.8954 56 81 56C82.1046 56 83 56.8954 83 58Z" fill="#FFC800" fill-opacity="0.05"/>
<path d="M83 81C83 82.1046 82.1046 83 81 83C79.8954 83 79 82.1046 79 81C79 79.8954 79.8954 79 81 79C82.1046 79 83 79.8954 83 81Z" fill="#FFC800" fill-opacity="0.05"/>
<path d="M83 104C83 105.105 82.1046 106 81 106C79.8954 106 79 105.105 79 104C79 102.895 79.8954 102 81 102C82.1046 102 83 102.895 83 104Z" fill="#FFC800" fill-opacity="0.05"/>
<path d="M83 127C83 128.105 82.1046 129 81 129C79.8954 129 79 128.105 79 127C79 125.895 79.8954 125 81 125C82.1046 125 83 125.895 83 127Z" fill="#FFC800" fill-opacity="0.05"/>
<path d="M83 150C83 151.105 82.1046 152 81 152C79.8954 152 79 151.105 79 150C79 148.895 79.8954 148 81 148C82.1046 148 83 148.895 83 150Z" fill="#FFC800" fill-opacity="0.05"/>
<path d="M83 173C83 174.105 82.1046 175 81 175C79.8954 175 79 174.105 79 173C79 171.895 79.8954 171 81 171C82.1046 171 83 171.895 83 173Z" fill="#FFC800" fill-opacity="0.05"/>
<path d="M83 196C83 197.105 82.1046 198 81 198C79.8954 198 79 197.105 79 196C79 194.895 79.8954 194 81 194C82.1046 194 83 194.895 83 196Z" fill="#FFC800" fill-opacity="0.05"/>
<path d="M106 12C106 13.1046 105.105 14 104 14C102.895 14 102 13.1046 102 12C102 10.8954 102.895 10 104 10C105.105 10 106 10.8954 106 12Z" fill="#FFC800" fill-opacity="0.05"/>
<path d="M106 35C106 36.1046 105.105 37 104 37C102.895 37 102 36.1046 102 35C102 33.8954 102.895 33 104 33C105.105 33 106 33.8954 106 35Z" fill="#FFC800" fill-opacity="0.05"/>
<path d="M106 58C106 59.1046 105.105 60 104 60C102.895 60 102 59.1046 102 58C102 56.8954 102.895 56 104 56C105.105 56 106 56.8954 106 58Z" fill="#FFC800" fill-opacity="0.05"/>
<path d="M106 81C106 82.1046 105.105 83 104 83C102.895 83 102 82.1046 102 81C102 79.8954 102.895 79 104 79C105.105 79 106 79.8954 106 81Z" fill="#FFC800" fill-opacity="0.05"/>
<path d="M106 104C106 105.105 105.105 106 104 106C102.895 106 102 105.105 102 104C102 102.895 102.895 102 104 102C105.105 102 106 102.895 106 104Z" fill="#FFC800" fill-opacity="0.05"/>
<path d="M106 127C106 128.105 105.105 129 104 129C102.895 129 102 128.105 102 127C102 125.895 102.895 125 104 125C105.105 125 106 125.895 106 127Z" fill="#FFC800" fill-opacity="0.05"/>
<path d="M106 150C106 151.105 105.105 152 104 152C102.895 152 102 151.105 102 150C102 148.895 102.895 148 104 148C105.105 148 106 148.895 106 150Z" fill="#FFC800" fill-opacity="0.05"/>
<path d="M106 173C106 174.105 105.105 175 104 175C102.895 175 102 174.105 102 173C102 171.895 102.895 171 104 171C105.105 171 106 171.895 106 173Z" fill="#FFC800" fill-opacity="0.05"/>
<path d="M106 196C106 197.105 105.105 198 104 198C102.895 198 102 197.105 102 196C102 194.895 102.895 194 104 194C105.105 194 106 194.895 106 196Z" fill="#FFC800" fill-opacity="0.05"/>
<path d="M129 12C129 13.1046 128.105 14 127 14C125.895 14 125 13.1046 125 12C125 10.8954 125.895 10 127 10C128.105 10 129 10.8954 129 12Z" fill="#FFC800" fill-opacity="0.05"/>
<path d="M129 35C129 36.1046 128.105 37 127 37C125.895 37 125 36.1046 125 35C125 33.8954 125.895 33 127 33C128.105 33 129 33.8954 129 35Z" fill="#FFC800" fill-opacity="0.05"/>
<path d="M129 58C129 59.1046 128.105 60 127 60C125.895 60 125 59.1046 125 58C125 56.8954 125.895 56 127 56C128.105 56 129 56.8954 129 58Z" fill="#FFC800" fill-opacity="0.05"/>
<path d="M129 81C129 82.1046 128.105 83 127 83C125.895 83 125 82.1046 125 81C125 79.8954 125.895 79 127 79C128.105 79 129 79.8954 129 81Z" fill="#FFC800" fill-opacity="0.05"/>
<path d="M129 104C129 105.105 128.105 106 127 106C125.895 106 125 105.105 125 104C125 102.895 125.895 102 127 102C128.105 102 129 102.895 129 104Z" fill="#FFC800" fill-opacity="0.05"/>
<path d="M129 127C129 128.105 128.105 129 127 129C125.895 129 125 128.105 125 127C125 125.895 125.895 125 127 125C128.105 125 129 125.895 129 127Z" fill="#FFC800" fill-opacity="0.05"/>
<path d="M129 150C129 151.105 128.105 152 127 152C125.895 152 125 151.105 125 150C125 148.895 125.895 148 127 148C128.105 148 129 148.895 129 150Z" fill="#FFC800" fill-opacity="0.05"/>
<path d="M129 173C129 174.105 128.105 175 127 175C125.895 175 125 174.105 125 173C125 171.895 125.895 171 127 171C128.105 171 129 171.895 129 173Z" fill="#FFC800" fill-opacity="0.05"/>
<path d="M129 196C129 197.105 128.105 198 127 198C125.895 198 125 197.105 125 196C125 194.895 125.895 194 127 194C128.105 194 129 194.895 129 196Z" fill="#FFC800" fill-opacity="0.05"/>
<path d="M152 12C152 13.1046 151.105 14 150 14C148.895 14 148 13.1046 148 12C148 10.8954 148.895 10 150 10C151.105 10 152 10.8954 152 12Z" fill="#FFC800" fill-opacity="0.05"/>
<path d="M152 35C152 36.1046 151.105 37 150 37C148.895 37 148 36.1046 148 35C148 33.8954 148.895 33 150 33C151.105 33 152 33.8954 152 35Z" fill="#FFC800" fill-opacity="0.05"/>
<path d="M152 58C152 59.1046 151.105 60 150 60C148.895 60 148 59.1046 148 58C148 56.8954 148.895 56 150 56C151.105 56 152 56.8954 152 58Z" fill="#FFC800" fill-opacity="0.05"/>
<path d="M152 81C152 82.1046 151.105 83 150 83C148.895 83 148 82.1046 148 81C148 79.8954 148.895 79 150 79C151.105 79 152 79.8954 152 81Z" fill="#FFC800" fill-opacity="0.05"/>
<path d="M152 104C152 105.105 151.105 106 150 106C148.895 106 148 105.105 148 104C148 102.895 148.895 102 150 102C151.105 102 152 102.895 152 104Z" fill="#FFC800" fill-opacity="0.05"/>
<path d="M152 127C152 128.105 151.105 129 150 129C148.895 129 148 128.105 148 127C148 125.895 148.895 125 150 125C151.105 125 152 125.895 152 127Z" fill="#FFC800" fill-opacity="0.05"/>
<path d="M152 150C152 151.105 151.105 152 150 152C148.895 152 148 151.105 148 150C148 148.895 148.895 148 150 148C151.105 148 152 148.895 152 150Z" fill="#FFC800" fill-opacity="0.05"/>
<path d="M152 173C152 174.105 151.105 175 150 175C148.895 175 148 174.105 148 173C148 171.895 148.895 171 150 171C151.105 171 152 171.895 152 173Z" fill="#FFC800" fill-opacity="0.05"/>
<path d="M152 196C152 197.105 151.105 198 150 198C148.895 198 148 197.105 148 196C148 194.895 148.895 194 150 194C151.105 194 152 194.895 152 196Z" fill="#FFC800" fill-opacity="0.05"/>
<path d="M175 12C175 13.1046 174.105 14 173 14C171.895 14 171 13.1046 171 12C171 10.8954 171.895 10 173 10C174.105 10 175 10.8954 175 12Z" fill="#FFC800" fill-opacity="0.05"/>
<path d="M175 35C175 36.1046 174.105 37 173 37C171.895 37 171 36.1046 171 35C171 33.8954 171.895 33 173 33C174.105 33 175 33.8954 175 35Z" fill="#FFC800" fill-opacity="0.05"/>
<path d="M175 58C175 59.1046 174.105 60 173 60C171.895 60 171 59.1046 171 58C171 56.8954 171.895 56 173 56C174.105 56 175 56.8954 175 58Z" fill="#FFC800" fill-opacity="0.05"/>
<path d="M175 81C175 82.1046 174.105 83 173 83C171.895 83 171 82.1046 171 81C171 79.8954 171.895 79 173 79C174.105 79 175 79.8954 175 81Z" fill="#FFC800" fill-opacity="0.05"/>
<path d="M175 104C175 105.105 174.105 106 173 106C171.895 106 171 105.105 171 104C171 102.895 171.895 102 173 102C174.105 102 175 102.895 175 104Z" fill="#FFC800" fill-opacity="0.05"/>
<path d="M175 127C175 128.105 174.105 129 173 129C171.895 129 171 128.105 171 127C171 125.895 171.895 125 173 125C174.105 125 175 125.895 175 127Z" fill="#FFC800" fill-opacity="0.05"/>
<path d="M175 150C175 151.105 174.105 152 173 152C171.895 152 171 151.105 171 150C171 148.895 171.895 148 173 148C174.105 148 175 148.895 175 150Z" fill="#FFC800" fill-opacity="0.05"/>
<path d="M175 173C175 174.105 174.105 175 173 175C171.895 175 171 174.105 171 173C171 171.895 171.895 171 173 171C174.105 171 175 171.895 175 173Z" fill="#FFC800" fill-opacity="0.05"/>
<path d="M175 196C175 197.105 174.105 198 173 198C171.895 198 171 197.105 171 196C171 194.895 171.895 194 173 194C174.105 194 175 194.895 175 196Z" fill="#FFC800" fill-opacity="0.05"/>
<path d="M198 12C198 13.1046 197.105 14 196 14C194.895 14 194 13.1046 194 12C194 10.8954 194.895 10 196 10C197.105 10 198 10.8954 198 12Z" fill="#FFC800" fill-opacity="0.05"/>
<path d="M198 35C198 36.1046 197.105 37 196 37C194.895 37 194 36.1046 194 35C194 33.8954 194.895 33 196 33C197.105 33 198 33.8954 198 35Z" fill="#FFC800" fill-opacity="0.05"/>
<path d="M198 58C198 59.1046 197.105 60 196 60C194.895 60 194 59.1046 194 58C194 56.8954 194.895 56 196 56C197.105 56 198 56.8954 198 58Z" fill="#FFC800" fill-opacity="0.05"/>
<path d="M198 81C198 82.1046 197.105 83 196 83C194.895 83 194 82.1046 194 81C194 79.8954 194.895 79 196 79C197.105 79 198 79.8954 198 81Z" fill="#FFC800" fill-opacity="0.05"/>
<path d="M198 104C198 105.105 197.105 106 196 106C194.895 106 194 105.105 194 104C194 102.895 194.895 102 196 102C197.105 102 198 102.895 198 104Z" fill="#FFC800" fill-opacity="0.05"/>
<path d="M198 127C198 128.105 197.105 129 196 129C194.895 129 194 128.105 194 127C194 125.895 194.895 125 196 125C197.105 125 198 125.895 198 127Z" fill="#FFC800" fill-opacity="0.05"/>
<path d="M198 150C198 151.105 197.105 152 196 152C194.895 152 194 151.105 194 150C194 148.895 194.895 148 196 148C197.105 148 198 148.895 198 150Z" fill="#FFC800" fill-opacity="0.05"/>
<path d="M198 173C198 174.105 197.105 175 196 175C194.895 175 194 174.105 194 173C194 171.895 194.895 171 196 171C197.105 171 198 171.895 198 173Z" fill="#FFC800" fill-opacity="0.05"/>
<path d="M198 196C198 197.105 197.105 198 196 198C194.895 198 194 197.105 194 196C194 194.895 194.895 194 196 194C197.105 194 198 194.895 198 196Z" fill="#FFC800" fill-opacity="0.05"/>
</svg>
