<svg width="2229" height="413" viewBox="0 0 2229 413" fill="none" xmlns="http://www.w3.org/2000/svg">
<g clip-path="url(#clip0_141_328)">
<path d="M390.03 287.962L404.846 254.708C423.284 269.524 452.587 280.06 480.903 280.06C516.791 280.06 531.937 267.219 531.937 250.098C531.937 200.381 394.969 232.977 394.969 147.372C394.969 110.167 424.602 78.5586 487.818 78.5586C515.475 78.5586 544.449 85.8026 564.533 98.9726L551.034 132.227C530.291 120.045 507.573 114.118 487.489 114.118C451.93 114.118 437.443 127.947 437.443 145.397C437.443 194.455 574.082 162.518 574.082 247.135C574.082 284.011 544.12 315.619 480.904 315.619C445.016 315.619 409.128 304.425 390.031 287.962H390.03Z" fill="white"/>
<path d="M777.228 237.587H639.272C644.211 263.268 665.612 279.731 696.232 279.731C715.987 279.731 731.462 273.475 743.973 260.635L766.033 285.987C750.229 304.754 725.535 314.632 695.244 314.632C636.308 314.632 598.115 276.768 598.115 224.418C598.115 172.068 636.637 134.533 688.988 134.533C741.339 134.533 777.885 170.421 777.885 225.406C777.885 228.699 777.556 233.637 777.226 237.588L777.228 237.587ZM638.943 210.259H738.706C735.413 184.907 715.988 167.456 688.989 167.456C661.99 167.456 642.894 184.577 638.943 210.259Z" fill="white"/>
<path d="M817.396 68.0234H858.552V312.327H817.396V68.0234Z" fill="white"/>
<path d="M912.533 68.0234H953.689V312.327H912.533V68.0234Z" fill="white"/>
<path d="M1002.09 82.8385C1002.09 69.0095 1013.28 58.1445 1028.43 58.1445C1043.57 58.1445 1054.77 68.3515 1054.77 81.8505C1054.77 96.3375 1043.9 107.532 1028.43 107.532C1012.95 107.532 1002.09 96.6675 1002.09 82.8385ZM1007.69 136.507H1048.84V312.326H1007.69V136.507Z" fill="white"/>
<path d="M1276.02 211.576V312.327H1234.87V216.844C1234.87 185.565 1219.39 170.42 1193.05 170.42C1163.75 170.42 1144 188.199 1144 223.429V312.327H1102.84V136.508H1142.02V159.226C1155.52 143.093 1176.92 134.532 1202.6 134.532C1244.75 134.532 1276.02 158.567 1276.02 211.576Z" fill="white"/>
<path d="M1504.51 136.507V285.657C1504.51 349.531 1471.25 378.506 1409.68 378.506C1376.76 378.506 1344.16 369.945 1324.08 353.483L1342.52 322.534C1357.99 335.375 1383.02 343.606 1407.38 343.606C1446.23 343.606 1463.35 325.827 1463.35 290.267V281.048C1448.87 296.852 1428.12 304.425 1404.42 304.425C1354.04 304.425 1315.52 270.183 1315.52 219.149C1315.52 168.115 1354.04 134.532 1404.42 134.532C1429.11 134.532 1450.84 142.434 1465.33 159.884V136.507H1504.51ZM1464.01 219.149C1464.01 189.516 1441.62 169.432 1410.67 169.432C1379.72 169.432 1357 189.516 1357 219.149C1357 248.782 1379.39 269.524 1410.67 269.524C1441.95 269.524 1464.01 249.11 1464.01 219.149Z" fill="white"/>
<path d="M1761.65 81.8516V312.327H1737.62V205.979H1593.41V312.327H1569.04V81.8516H1593.41V184.578H1737.62V81.8516H1761.65Z" fill="white"/>
<path d="M1987.85 139.141V312.327H1965.46V280.719C1953.28 301.791 1930.89 313.973 1903.23 313.973C1859.11 313.973 1830.14 289.279 1830.14 239.562V139.141H1853.51V237.257C1853.51 274.133 1872.61 292.9 1905.53 292.9C1941.75 292.9 1964.47 269.523 1964.47 230.013V139.14H1987.85V139.141Z" fill="white"/>
<path d="M2228.86 225.734C2228.86 278.085 2191.98 313.973 2142.59 313.973C2113.95 313.973 2089.91 301.462 2075.76 278.085V312.327H2053.37V68.0234H2076.74V172.066C2091.23 149.677 2114.94 137.824 2142.59 137.824C2191.98 137.824 2228.86 173.383 2228.86 225.734ZM2205.48 225.734C2205.48 185.236 2177.49 158.238 2140.95 158.238C2104.4 158.238 2076.42 185.237 2076.42 225.734C2076.42 266.231 2104.07 293.23 2140.95 293.23C2177.82 293.23 2205.48 266.231 2205.48 225.734Z" fill="white"/>
<path d="M117.559 2.28841V129.28L0 246.822V117.559L113.69 3.86941L117.592 0.0664062L117.559 2.28841Z" fill="#FFD60A"/>
<path d="M117.542 167.835V294.827L0 412.369V283.106L117.575 165.53L117.542 167.835Z" fill="#FFD60A"/>
<path d="M258.148 2.272V129.28L140.606 246.822V117.559L258.165 0L258.148 2.272Z" fill="#FFD60A"/>
<path d="M258.148 167.835V294.827L140.606 412.369V283.106L258.165 165.547L258.148 167.835Z" fill="#FFD60A"/>
</g>
<defs>
<clipPath id="clip0_141_328">
<rect width="2228.86" height="412.369" fill="white"/>
</clipPath>
</defs>
</svg>
